<svg width="119" height="32" viewBox="0 0 119 32" fill="none" xmlns="http://www.w3.org/2000/svg">
<g clip-path="url(#clip0_3807_109978)">
<path d="M27.001 9.00001H5.00098C4.44869 9.00001 4.00098 9.44772 4.00098 10V26C4.00098 26.5523 4.44869 27 5.00098 27H27.001C27.5533 27 28.001 26.5523 28.001 26V10C28.001 9.44772 27.5533 9.00001 27.001 9.00001Z" stroke="#0A65CC" stroke-width="2.5" stroke-linecap="round" stroke-linejoin="round"/>
<path d="M21 9V7C21 6.46957 20.7893 5.96086 20.4142 5.58579C20.0391 5.21071 19.5304 5 19 5H13C12.4696 5 11.9609 5.21071 11.5858 5.58579C11.2107 5.96086 11 6.46957 11 7V9" stroke="#0A65CC" stroke-width="2.5" stroke-linecap="round" stroke-linejoin="round"/>
<path d="M28.001 15.7886C24.3539 17.8987 20.2135 19.0066 16 19C11.7872 19.0066 7.64749 17.8991 4.00079 15.7897" stroke="#0A65CC" stroke-width="2.5" stroke-linecap="round" stroke-linejoin="round"/>
<path d="M14.5 15H17.5" stroke="#0A65CC" stroke-width="2.5" stroke-linecap="round" stroke-linejoin="round"/>
</g>
<path d="M47.1733 8.45455H49.7869V18.6818C49.7822 19.6193 49.5833 20.4266 49.1903 21.1037C48.7973 21.776 48.2481 22.2945 47.5426 22.6591C46.8419 23.0189 46.0251 23.1989 45.0923 23.1989C44.2401 23.1989 43.473 23.0473 42.7912 22.7443C42.1141 22.4366 41.5767 21.982 41.179 21.3807C40.7813 20.7794 40.5824 20.0312 40.5824 19.1364H43.2031C43.2079 19.5294 43.2931 19.8679 43.4588 20.152C43.6293 20.4361 43.8636 20.6539 44.1619 20.8054C44.4602 20.9569 44.8035 21.0327 45.1918 21.0327C45.6132 21.0327 45.9706 20.9451 46.2642 20.7699C46.5578 20.59 46.7803 20.3248 46.9318 19.9744C47.0881 19.6241 47.1686 19.1932 47.1733 18.6818V8.45455ZM57.2905 23.2131C56.2251 23.2131 55.3018 22.9787 54.5206 22.5099C53.7393 22.0412 53.1333 21.3854 52.7024 20.5426C52.2763 19.6998 52.0632 18.715 52.0632 17.5881C52.0632 16.4612 52.2763 15.474 52.7024 14.6264C53.1333 13.7789 53.7393 13.1207 54.5206 12.652C55.3018 12.1832 56.2251 11.9489 57.2905 11.9489C58.3558 11.9489 59.2791 12.1832 60.0604 12.652C60.8416 13.1207 61.4453 13.7789 61.8714 14.6264C62.3023 15.474 62.5178 16.4612 62.5178 17.5881C62.5178 18.715 62.3023 19.6998 61.8714 20.5426C61.4453 21.3854 60.8416 22.0412 60.0604 22.5099C59.2791 22.9787 58.3558 23.2131 57.2905 23.2131ZM57.3047 21.1534C57.8823 21.1534 58.3653 20.9948 58.7536 20.6776C59.1418 20.3556 59.4306 19.9247 59.62 19.3849C59.8142 18.8452 59.9112 18.2438 59.9112 17.581C59.9112 16.9134 59.8142 16.3097 59.62 15.7699C59.4306 15.2254 59.1418 14.7921 58.7536 14.4702C58.3653 14.1482 57.8823 13.9872 57.3047 13.9872C56.7128 13.9872 56.2204 14.1482 55.8274 14.4702C55.4392 14.7921 55.148 15.2254 54.9538 15.7699C54.7644 16.3097 54.6697 16.9134 54.6697 17.581C54.6697 18.2438 54.7644 18.8452 54.9538 19.3849C55.148 19.9247 55.4392 20.3556 55.8274 20.6776C56.2204 20.9948 56.7128 21.1534 57.3047 21.1534ZM64.8136 23V8.45455H67.3846V13.8949H67.4911C67.6237 13.6297 67.8107 13.348 68.0522 13.0497C68.2937 12.7467 68.6204 12.4886 69.0323 12.2756C69.4442 12.0578 69.9698 11.9489 70.609 11.9489C71.4518 11.9489 72.2118 12.1643 72.8888 12.5952C73.5707 13.0213 74.1104 13.6534 74.5082 14.4915C74.9106 15.3248 75.1119 16.3475 75.1119 17.5597C75.1119 18.7576 74.9154 19.7756 74.5224 20.6136C74.1294 21.4517 73.5943 22.0909 72.9173 22.5312C72.2402 22.9716 71.4731 23.1918 70.6161 23.1918C69.9911 23.1918 69.4727 23.0876 69.0607 22.8793C68.6488 22.6709 68.3174 22.42 68.0664 22.1264C67.8202 21.8281 67.6284 21.5464 67.4911 21.2812H67.342V23H64.8136ZM67.3349 17.5455C67.3349 18.2509 67.4343 18.8688 67.6332 19.3991C67.8368 19.9295 68.128 20.3437 68.5067 20.642C68.8903 20.9356 69.3543 21.0824 69.8988 21.0824C70.467 21.0824 70.9428 20.9309 71.3263 20.6278C71.7099 20.3201 71.9987 19.901 72.1928 19.3707C72.3917 18.8357 72.4911 18.2273 72.4911 17.5455C72.4911 16.8684 72.3941 16.267 72.1999 15.7415C72.0058 15.2159 71.717 14.804 71.3335 14.5057C70.9499 14.2074 70.4717 14.0582 69.8988 14.0582C69.3496 14.0582 68.8832 14.2027 68.4996 14.4915C68.1161 14.7803 67.8249 15.1851 67.6261 15.706C67.4319 16.2268 67.3349 16.84 67.3349 17.5455ZM77.2976 27.0909V12.0909H79.826V13.8949H79.9751C80.1077 13.6297 80.2947 13.348 80.5362 13.0497C80.7777 12.7467 81.1044 12.4886 81.5163 12.2756C81.9283 12.0578 82.4538 11.9489 83.093 11.9489C83.9358 11.9489 84.6958 12.1643 85.3729 12.5952C86.0547 13.0213 86.5945 13.6534 86.9922 14.4915C87.3946 15.3248 87.5959 16.3475 87.5959 17.5597C87.5959 18.7576 87.3994 19.7756 87.0064 20.6136C86.6134 21.4517 86.0784 22.0909 85.4013 22.5312C84.7242 22.9716 83.9571 23.1918 83.1001 23.1918C82.4751 23.1918 81.9567 23.0876 81.5447 22.8793C81.1328 22.6709 80.8014 22.42 80.5504 22.1264C80.3042 21.8281 80.1125 21.5464 79.9751 21.2812H79.8686V27.0909H77.2976ZM79.8189 17.5455C79.8189 18.2509 79.9183 18.8688 80.1172 19.3991C80.3208 19.9295 80.612 20.3437 80.9908 20.642C81.3743 20.9356 81.8383 21.0824 82.3828 21.0824C82.951 21.0824 83.4268 20.9309 83.8104 20.6278C84.1939 20.3201 84.4827 19.901 84.6768 19.3707C84.8757 18.8357 84.9751 18.2273 84.9751 17.5455C84.9751 16.8684 84.8781 16.267 84.6839 15.7415C84.4898 15.2159 84.201 14.804 83.8175 14.5057C83.4339 14.2074 82.9557 14.0582 82.3828 14.0582C81.8336 14.0582 81.3672 14.2027 80.9837 14.4915C80.6001 14.7803 80.3089 15.1851 80.1101 15.706C79.916 16.2268 79.8189 16.84 79.8189 17.5455ZM89.7976 23V12.0909H92.3686V23H89.7976ZM91.0902 10.5426C90.683 10.5426 90.3326 10.4077 90.0391 10.1378C89.7455 9.86316 89.5987 9.53409 89.5987 9.15057C89.5987 8.76231 89.7455 8.43324 90.0391 8.16335C90.3326 7.88873 90.683 7.75142 91.0902 7.75142C91.5021 7.75142 91.8525 7.88873 92.1413 8.16335C92.4349 8.43324 92.5817 8.76231 92.5817 9.15057C92.5817 9.53409 92.4349 9.86316 92.1413 10.1378C91.8525 10.4077 91.5021 10.5426 91.0902 10.5426ZM97.5835 8.45455V23H95.0124V8.45455H97.5835ZM104.986 23.2131C103.92 23.2131 102.997 22.9787 102.216 22.5099C101.435 22.0412 100.829 21.3854 100.398 20.5426C99.9716 19.6998 99.7585 18.715 99.7585 17.5881C99.7585 16.4612 99.9716 15.474 100.398 14.6264C100.829 13.7789 101.435 13.1207 102.216 12.652C102.997 12.1832 103.92 11.9489 104.986 11.9489C106.051 11.9489 106.974 12.1832 107.756 12.652C108.537 13.1207 109.141 13.7789 109.567 14.6264C109.998 15.474 110.213 16.4612 110.213 17.5881C110.213 18.715 109.998 19.6998 109.567 20.5426C109.141 21.3854 108.537 22.0412 107.756 22.5099C106.974 22.9787 106.051 23.2131 104.986 23.2131ZM105 21.1534C105.578 21.1534 106.061 20.9948 106.449 20.6776C106.837 20.3556 107.126 19.9247 107.315 19.3849C107.509 18.8452 107.607 18.2438 107.607 17.581C107.607 16.9134 107.509 16.3097 107.315 15.7699C107.126 15.2254 106.837 14.7921 106.449 14.4702C106.061 14.1482 105.578 13.9872 105 13.9872C104.408 13.9872 103.916 14.1482 103.523 14.4702C103.134 14.7921 102.843 15.2254 102.649 15.7699C102.46 16.3097 102.365 16.9134 102.365 17.581C102.365 18.2438 102.46 18.8452 102.649 19.3849C102.843 19.9247 103.134 20.3556 103.523 20.6776C103.916 20.9948 104.408 21.1534 105 21.1534ZM117.843 12.0909V14.0795H111.571V12.0909H117.843ZM113.12 9.47727H115.691V19.7188C115.691 20.0644 115.743 20.3295 115.847 20.5142C115.956 20.6941 116.098 20.8172 116.273 20.8835C116.448 20.9498 116.642 20.983 116.855 20.983C117.016 20.983 117.163 20.9711 117.296 20.9474C117.433 20.9238 117.537 20.9025 117.608 20.8835L118.042 22.8935C117.904 22.9408 117.708 22.9929 117.452 23.0497C117.201 23.1065 116.893 23.1397 116.529 23.1491C115.885 23.1681 115.305 23.071 114.789 22.858C114.273 22.6402 113.863 22.304 113.56 21.8494C113.262 21.3949 113.115 20.8267 113.12 20.1449V9.47727Z" fill="#18191C"/>
<defs>
<clipPath id="clip0_3807_109978">
<rect width="32" height="32" fill="white"/>
</clipPath>
</defs>
</svg>
